HIERARCHY
ROOT hip
{
  OFFSET 56.7436 78.8065 80.3741
  CHANNELS 6 Xposition Yposition Zposition Zrotation Xrotation Yrotation
  JOINT abdomen
  {
    OFFSET 0 20.6881 -0.73152
    CHANNELS 3 Zrotation Xrotation Yrotation
    JOINT chest
    {
      OFFSET 0 11.7043 -0.48768
      CHANNELS 3 Zrotation Xrotation Yrotation
      JOINT neck
      {
        OFFSET 0 22.1894 -2.19456
        CHANNELS 3 Zrotation Xrotation Yrotation
        JOINT head
        {
          OFFSET -0.24384 7.07133 1.2192
          CHANNELS 3 Zrotation Xrotation Yrotation
          JOINT leftEye
          {
            OFFSET 4.14528 8.04674 8.04672
            CHANNELS 3 Zrotation Xrotation Yrotation
            End Site
            {
              OFFSET 1 0 0
            }
          }
          JOINT rightEye
          {
            OFFSET -3.6576 8.04674 8.04672
            CHANNELS 3 Zrotation Xrotation Yrotation
            End Site
            {
              OFFSET 1 0 0
            }
          }
        }
      }
      JOINT rCollar
      {
        OFFSET -2.68224 19.2634 -4.8768
        CHANNELS 3 Zrotation Xrotation Yrotation
        JOINT rShldr
        {
          OFFSET -8.77824 -1.95073 1.46304
          CHANNELS 3 Zrotation Xrotation Yrotation
          JOINT rForeArm
          {
            OFFSET -28.1742 -1.7115 0.48768
            CHANNELS 3 Zrotation Xrotation Yrotation
            JOINT rHand
            {
              OFFSET -22.5879 0.773209 7.07136
              CHANNELS 3 Zrotation Xrotation Yrotation
              JOINT rThumb1
              {
                OFFSET -1.2192 -0.487915 3.41376
                CHANNELS 3 Zrotation Xrotation Yrotation
                JOINT rThumb2
                {
                  OFFSET -3.37035 -0.52449 3.41376
                  CHANNELS 3 Zrotation Xrotation Yrotation
                  End Site
                  {
                    OFFSET -1.78271 -1.18214 1.43049
                  }
                }
              }
              JOINT rIndex1
              {
                OFFSET -7.75947 0.938293 5.60832
                CHANNELS 3 Zrotation Xrotation Yrotation
                JOINT rIndex2
                {
                  OFFSET -2.54057 -0.884171 1.56538
                  CHANNELS 3 Zrotation Xrotation Yrotation
                  End Site
                  {
                    OFFSET -1.62519 -0.234802 1.16502
                  }
                }
              }
              JOINT rMid1
              {
                OFFSET -8.24714 1.18213 3.41376
                CHANNELS 3 Zrotation Xrotation Yrotation
                JOINT rMid2
                {
                  OFFSET -3.10165 -0.590103 1.0647
                  CHANNELS 3 Zrotation Xrotation Yrotation
                  End Site
                  {
                    OFFSET -2.48547 -0.328903 0.83742
                  }
                }
              }
              JOINT rRing1
              {
                OFFSET -8.82822 0.546677 1.51678
                CHANNELS 3 Zrotation Xrotation Yrotation
                JOINT rRing2
                {
                  OFFSET -2.60934 -0.819778 -0.0198488
                  CHANNELS 3 Zrotation Xrotation Yrotation
                  End Site
                  {
                    OFFSET -2.33842 -0.294052 0.168128
                  }
                }
              }
              JOINT rPinky1
              {
                OFFSET -8.27202 -0.0477905 -0.4584
                CHANNELS 3 Zrotation Xrotation Yrotation
                JOINT rPinky2
                {
                  OFFSET -1.82734 -0.647385 -0.700984
                  CHANNELS 3 Zrotation Xrotation Yrotation
                  End Site
                  {
                    OFFSET -1.69225 -0.51767 -0.607171
                  }
                }
              }
            }
          }
        }
      }
      JOINT lCollar
      {
        OFFSET 2.68224 19.2634 -4.8768
        CHANNELS 3 Zrotation Xrotation Yrotation
        JOINT lShldr
        {
          OFFSET 8.77824 -1.95073 1.46304
          CHANNELS 3 Zrotation Xrotation Yrotation
          JOINT lForeArm
          {
            OFFSET 28.1742 -1.7115 0.48768
            CHANNELS 3 Zrotation Xrotation Yrotation
            JOINT lHand
            {
              OFFSET 22.5879 0.773209 7.07136
              CHANNELS 3 Zrotation Xrotation Yrotation
              JOINT lThumb1
              {
                OFFSET 1.2192 -0.487915 3.41376
                CHANNELS 3 Zrotation Xrotation Yrotation
                JOINT lThumb2
                {
                  OFFSET 3.37035 -0.52449 3.41376
                  CHANNELS 3 Zrotation Xrotation Yrotation
                  End Site
                  {
                    OFFSET 1.78271 -1.18214 1.43049
                  }
                }
              }
              JOINT lIndex1
              {
                OFFSET 7.75947 0.938293 5.60832
                CHANNELS 3 Zrotation Xrotation Yrotation
                JOINT lIndex2
                {
                  OFFSET 2.54057 -0.884171 1.56538
                  CHANNELS 3 Zrotation Xrotation Yrotation
                  End Site
                  {
                    OFFSET 1.62519 -0.234802 1.16502
                  }
                }
              }
              JOINT lMid1
              {
                OFFSET 8.24714 1.18213 3.41376
                CHANNELS 3 Zrotation Xrotation Yrotation
                JOINT lMid2
                {
                  OFFSET 3.10165 -0.590103 1.0647
                  CHANNELS 3 Zrotation Xrotation Yrotation
                  End Site
                  {
                    OFFSET 2.48547 -0.328903 0.83742
                  }
                }
              }
              JOINT lRing1
              {
                OFFSET 8.82822 0.546677 1.51678
                CHANNELS 3 Zrotation Xrotation Yrotation
                JOINT lRing2
                {
                  OFFSET 2.60934 -0.819778 -0.0198488
                  CHANNELS 3 Zrotation Xrotation Yrotation
                  End Site
                  {
                    OFFSET 2.33842 -0.294052 0.168128
                  }
                }
              }
              JOINT lPinky1
              {
                OFFSET 8.27202 -0.0477905 -0.4584
                CHANNELS 3 Zrotation Xrotation Yrotation
                JOINT lPinky2
                {
                  OFFSET 1.82734 -0.647385 -0.700984
                  CHANNELS 3 Zrotation Xrotation Yrotation
                  End Site
                  {
                    OFFSET 1.69225 -0.51767 -0.607171
                  }
                }
              }
            }
          }
        }
      }
    }
  }
  JOINT rButtock
  {
    OFFSET -8.77824 4.35084 1.2192
    CHANNELS 3 Zrotation Xrotation Yrotation
    JOINT rThigh
    {
      OFFSET 0 -1.70687 -2.19456
      CHANNELS 3 Zrotation Xrotation Yrotation
      JOINT rShin
      {
        OFFSET 0 -36.8199 0.73152
        CHANNELS 3 Zrotation Xrotation Yrotation
        JOINT rFoot
        {
          OFFSET 0.73152 -45.1104 -5.12064
          CHANNELS 3 Zrotation Xrotation Yrotation
          End Site
          {
            OFFSET -1.1221 -3.69964 12.103
          }
        }
      }
    }
  }
  JOINT lButtock
  {
    OFFSET 8.77824 4.35084 1.2192
    CHANNELS 3 Zrotation Xrotation Yrotation
    JOINT lThigh
    {
      OFFSET 0 -1.70687 -2.19456
      CHANNELS 3 Zrotation Xrotation Yrotation
      JOINT lShin
      {
        OFFSET 0 -36.8199 0.73152
        CHANNELS 3 Zrotation Xrotation Yrotation
        JOINT lFoot
        {
          OFFSET -0.73152 -45.1104 -5.12064
          CHANNELS 3 Zrotation Xrotation Yrotation
          End Site
          {
            OFFSET 1.1221 -3.69964 12.103
          }
        }
      }
    }
  }
}
MOTION
Frames:	4
Frame Time:	0.00833333
54.2882 85.2022 -81.8529 -0.457849 -0.000986233 0.00783599 0.602241 -0.00285568 0.0171684 0.166047 -0.00431787 0.0287696 -1.38196e-014 7.95139e-016 5.59081e-017 -4.14559e-014 9.54166e-015 1.50642e-016 -0 0 0 -0 0 0 -6.85957e-015 8.92978e-018 1.49089e-016 -1.42402e-013 6.83322e-017 7.95139e-016 -2.48575e-012 7.53394e-013 2.54444e-014 -2.8467e-011 -6.95548e-013 7.31528e-014 -6.7145e-011 1.25841e-013 2.25819e-013 -1.15966e-010 2.22639e-013 3.86437e-013 -6.71407e-011 1.27222e-013 2.19458e-013 7.73091 5.47488 0.417314 -6.71453e-011 1.26228e-013 2.25819e-013 2.90554 0.965183 0.102902 -6.71373e-011 1.25831e-013 2.21844e-013 10.2786 0.731801 0.0259123 -6.71465e-011 1.26427e-013 2.25819e-013 2.22167 -0.733487 -0.20892 -6.95642e-015 9.12391e-018 -4.96962e-017 -1.46324e-013 -2.42269e-016 -9.93923e-016 -2.48844e-012 -7.37094e-013 3.18055e-014 -2.84567e-011 7.79857e-013 6.04305e-014 -6.71247e-011 9.41813e-014 2.16278e-013 -1.15913e-010 1.65389e-013 3.95184e-013 -6.71288e-011 9.54166e-014 2.3218e-013 -7.73091 5.47488 -0.417314 -6.71241e-011 9.41245e-014 2.25819e-013 -2.90554 0.965183 -0.102902 -6.71337e-011 9.42239e-014 2.25819e-013 -10.2786 0.731801 -0.0259123 -6.71175e-011 9.54166e-014 2.22639e-013 -2.22167 -0.733487 0.20892 -2.03217e-016 0 -3.88251e-019 0.985456 -4.60218 -0.0812416 -0.00202245 2.78417 -0.00803935 -0.532634 1.81803 0.0982273 2.03217e-016 0 3.88251e-019 -0.0701629 -2.29252 0.0218606 0.0084667 -1.39935 0.0723342 0.526177 3.69178 -0.136086 
57.606 84.0387 -86.0082 0.535606 2.73558 21.0397 -1.83821 -0.988603 -0.858686 0.754947 0.701392 -0.20472 -4.53981 5.58723 -5.14495 8.75172 -2.77292 -9.83548 -0 0 0 -0 0 0 3.34855e-014 -3.42246e-013 -3.96214e-014 19.7737 1.19724 0.279369 -3.68203 -1.57867 5.84925 0.027182 3.65901 0.51046 -3.48772e-010 -4.16857e-011 1.94516e-010 -6.00075e-010 -7.66013e-011 3.39209e-010 -3.48768e-010 -4.16853e-011 1.94508e-010 7.73091 5.47488 0.417314 -3.48772e-010 -4.16824e-011 1.94515e-010 2.90554 0.965183 0.102902 -3.48766e-010 -4.16858e-011 1.94514e-010 10.2786 0.731801 0.0259123 -3.48775e-010 -4.16832e-011 1.9452e-010 2.22167 -0.733487 -0.20892 3.33899e-014 -3.42243e-013 -3.98055e-014 -22.2262 1.9088 1.33392 4.42915 -2.05475 -6.87015 -0.00128751 -0.796095 0.111845 -7.19738e-010 6.0173e-011 -3.82079e-010 -1.24413e-009 1.04304e-010 -6.60693e-010 -7.19744e-010 6.0173e-011 -3.82071e-010 -7.73091 5.47488 -0.417314 -7.19739e-010 6.01718e-011 -3.82073e-010 -2.90554 0.965183 -0.102902 -7.19749e-010 6.01712e-011 -3.82073e-010 -10.2786 0.731801 -0.0259123 -7.19732e-010 6.01718e-011 -3.82075e-010 -2.22167 -0.733487 0.20892 -2.03217e-016 0 -3.88251e-019 -1.13293 -7.0942 3.55378 0.00884562 8.74063 0.0977824 -0.988912 -1.33557 -5.30382 2.03217e-016 0 3.88251e-019 0.345224 -4.29695 -3.29875 0.00114392 4.0616 -0.0280145 0.553899 -0.730524 0.8473 
57.6579 84.0508 -86.0668 -0.38638 4.39601 43.3819 -4.45407 -2.0337 -1.78583 1.38126 1.44529 -0.451505 -8.23092 11.3527 -10.7429 16.9925 -5.44845 -20.297 -0 0 0 -0 0 0 7.81079e-014 -7.20345e-013 -8.0983e-014 40.6717 2.45638 0.570229 -7.22647 -3.19304 12.0477 -0.0155677 7.53323 1.05805 -6.68333e-010 -1.08047e-010 4.22378e-010 -1.1493e-009 -1.96414e-010 7.36436e-010 -6.68329e-010 -1.08048e-010 4.22368e-010 7.73091 5.47488 0.417314 -6.68334e-010 -1.08041e-010 4.22375e-010 2.90554 0.965183 0.102902 -6.6833e-010 -1.08048e-010 4.22378e-010 10.2786 0.731801 0.0259123 -6.68339e-010 -1.08043e-010 4.22385e-010 2.22167 -0.733487 -0.20892 7.80115e-014 -7.20339e-013 -8.11507e-014 -45.8133 3.92983 2.75394 8.5795 -4.1282 -14.1607 0.000730908 -1.63586 0.229898 -1.45255e-009 1.33163e-010 -8.12756e-010 -2.51097e-009 2.30768e-010 -1.40545e-009 -1.45256e-009 1.33162e-010 -8.12756e-010 -7.73091 5.47488 -0.417314 -1.45255e-009 1.33161e-010 -8.12754e-010 -2.90554 0.965183 -0.102902 -1.45256e-009 1.3316e-010 -8.12754e-010 -10.2786 0.731801 -0.0259123 -1.45254e-009 1.3316e-010 -8.12755e-010 -2.22167 -0.733487 0.20892 -2.03217e-016 0 -3.88251e-019 -3.02759 -9.67653 7.4443 -0.00437443 15.0369 0.214628 -2.11518 -4.5944 -11.0466 2.03217e-016 0 3.88251e-019 0.528077 -6.38736 -6.83642 0.0144075 9.83602 -0.135976 0.749428 -5.40224 1.899 
57.6739 84.0541 -86.0846 -2.17229 3.97607 63.301 -6.80958 -2.95736 -2.61349 1.95001 2.11268 -0.672109 -10.5451 16.2109 -16.0141 23.5202 -7.34369 -29.7397 -0 0 0 -0 0 0 1.14176e-013 -1.02676e-012 -1.19162e-013 59.2861 3.59137 0.839573 -10.0933 -4.53895 17.5981 -0.117123 10.9735 1.55673 -9.12026e-010 -1.25309e-010 5.83097e-010 -1.56829e-009 -2.30249e-010 1.01685e-009 -9.12021e-010 -1.2531e-010 5.83086e-010 7.73091 5.47488 0.417314 -9.12026e-010 -1.253e-010 5.83094e-010 2.90554 0.965183 0.102902 -9.12024e-010 -1.25309e-010 5.83098e-010 10.2786 0.731801 0.0259123 -9.12033e-010 -1.25302e-010 5.83108e-010 2.22167 -0.733487 -0.20892 1.14082e-013 -1.02675e-012 -1.19317e-013 -66.946 5.71394 4.01954 11.8382 -5.81049 -20.7084 0.00546848 -2.38825 0.335794 -2.02497e-009 1.80331e-010 -1.14667e-009 -3.50055e-009 3.12581e-010 -1.98287e-009 -2.02498e-009 1.80328e-010 -1.14668e-009 -7.73091 5.47488 -0.417314 -2.02497e-009 1.80327e-010 -1.14667e-009 -2.90554 0.965183 -0.102902 -2.02498e-009 1.80325e-010 -1.14667e-009 -10.2786 0.731801 -0.0259123 -2.02496e-009 1.80325e-010 -1.14667e-009 -2.22167 -0.733487 0.20892 -2.03217e-016 0 -3.88251e-019 -4.40932 -11.9033 10.9805 -0.0394035 20.6533 0.327017 -3.67221 -7.35773 -16.2409 2.03217e-016 0 3.88251e-019 0.476765 -8.20197 -10.0156 0.045223 14.9834 -0.236498 1.06885 -9.56375 2.85298 
